<svg 
          width="24" 
          height="15.999982833862305" fill="none" 
          xmlns="http://www.w3.org/2000/svg">
          <path d="M 23.853498563648298 7.646490122006591 L 16.35350392806249 0.14649597816457202 C 16.158175951355016 -0.048831992721524 15.8417695476869 -0.048831992721524 15.646488442548435 0.14649597816457202 C 15.45116046584096 0.34182394905066804 15.45116046584096 0.6582299856612892 15.646488442548435 0.853511084979772 L 22.292984752904353 7.50000585614599 L 0.5000152587781486 7.50000585614599 C 0.22364046074834293 7.50000585614599 0 7.723646667856757 0 8.000021457649737 C 0 8.276396247442717 0.22364046074834293 8.500036343898278 0.5000152587781486 8.500036343898278 L 22.292984752904353 8.500036343898278 L 15.646488442548435 15.14648453406931 C 15.45116046584096 15.341812504955406 15.45116046584096 15.65821746868322 15.646488442548435 15.853498568001704 C 15.744128995117668 15.951139117660945 15.872098716188395 15.999982833862305 16.000020503983137 15.999982833862305 C 16.127942291777877 15.999982833862305 16.25586369959328 15.951139117660945 16.353551134907388 15.853498568001704 L 23.853545770493195 8.353504871194188 C 24.04882687563166 8.158223771875704 24.048826540355773 7.841818092892686 23.853498563648298 7.646490122006591 Z" fill="rgb(255,255,255)"/>
        </svg>